<svg width="1318" height="438" viewBox="0 0 1318 438" fill="none" xmlns="http://www.w3.org/2000/svg">
<g clip-path="url(#clip0_646_105)">
<path d="M69 219C69 122.35 147.35 44 244 44V44C340.65 44 419 122.35 419 219V219C419 315.65 340.65 394 244 394V394C147.35 394 69 315.65 69 219V219Z" fill="url(#paint0_linear_646_105)"/>
<g opacity="0.1">
<path opacity="0.1" d="M419 385.713V393.972H410.741" stroke="white" stroke-miterlimit="10"/>
<path opacity="0.1" d="M394.855 393.973H85.2168" stroke="white" stroke-miterlimit="10" stroke-dasharray="5.77 5.77"/>
<path opacity="0.1" d="M77.2591 393.972H69V385.713" stroke="white" stroke-miterlimit="10"/>
<path opacity="0.1" d="M69 369.828V60.1882" stroke="white" stroke-miterlimit="10" stroke-dasharray="5.77 5.77"/>
<path opacity="0.1" d="M69 52.2592V44H77.2591" stroke="white" stroke-miterlimit="10"/>
<path opacity="0.1" d="M93.1445 44H402.782" stroke="white" stroke-miterlimit="10" stroke-dasharray="5.77 5.77"/>
<path opacity="0.1" d="M410.741 44H419V52.2592" stroke="white" stroke-miterlimit="10"/>
<path opacity="0.1" d="M418.998 68.1173V377.785" stroke="white" stroke-miterlimit="10" stroke-dasharray="5.77 5.77"/>
</g>
<path d="M184.622 302.79L243.829 263.826L303.004 302.79L243.829 121.086L184.622 302.79Z" fill="white"/>
<path d="M214.918 178.901L148.845 202.259L200.619 220.198L214.918 178.901Z" fill="white"/>
<path d="M338.797 202.259L272.724 178.901L287.023 220.198L338.797 202.259Z" fill="white"/>
</g>
<path d="M572.8 259H512L500.8 290H481.6L532 151.4H553L603.2 290H584L572.8 259ZM567.6 244.2L542.4 173.8L517.2 244.2H567.6ZM678.566 178.4C691.899 178.4 702.699 182.467 710.966 190.6C719.232 198.6 723.366 210.2 723.366 225.4V290H705.366V228C705.366 217.067 702.632 208.733 697.166 203C691.699 197.133 684.232 194.2 674.766 194.2C665.166 194.2 657.499 197.2 651.766 203.2C646.166 209.2 643.366 217.933 643.366 229.4V290H625.166V180.4H643.366V196C646.966 190.4 651.832 186.067 657.966 183C664.232 179.933 671.099 178.4 678.566 178.4ZM798.295 178.6C807.762 178.6 816.029 180.667 823.095 184.8C830.295 188.933 835.629 194.133 839.095 200.4V180.4H857.495V292.4C857.495 302.4 855.362 311.267 851.095 319C846.829 326.867 840.695 333 832.695 337.4C824.829 341.8 815.629 344 805.095 344C790.695 344 778.695 340.6 769.095 333.8C759.495 327 753.829 317.733 752.095 306H770.095C772.095 312.667 776.229 318 782.495 322C788.762 326.133 796.295 328.2 805.095 328.2C815.095 328.2 823.229 325.067 829.495 318.8C835.895 312.533 839.095 303.733 839.095 292.4V269.4C835.495 275.8 830.162 281.133 823.095 285.4C816.029 289.667 807.762 291.8 798.295 291.8C788.562 291.8 779.695 289.4 771.695 284.6C763.829 279.8 757.629 273.067 753.095 264.4C748.562 255.733 746.295 245.867 746.295 234.8C746.295 223.6 748.562 213.8 753.095 205.4C757.629 196.867 763.829 190.267 771.695 185.6C779.695 180.933 788.562 178.6 798.295 178.6ZM839.095 235C839.095 226.733 837.429 219.533 834.095 213.4C830.762 207.267 826.229 202.6 820.495 199.4C814.895 196.067 808.695 194.4 801.895 194.4C795.095 194.4 788.895 196 783.295 199.2C777.695 202.4 773.229 207.067 769.895 213.2C766.562 219.333 764.895 226.533 764.895 234.8C764.895 243.2 766.562 250.533 769.895 256.8C773.229 262.933 777.695 267.667 783.295 271C788.895 274.2 795.095 275.8 801.895 275.8C808.695 275.8 814.895 274.2 820.495 271C826.229 267.667 830.762 262.933 834.095 256.8C837.429 250.533 839.095 243.267 839.095 235ZM988.252 231C988.252 234.467 988.052 238.133 987.652 242H900.052C900.718 252.8 904.385 261.267 911.052 267.4C917.852 273.4 926.052 276.4 935.652 276.4C943.518 276.4 950.052 274.6 955.252 271C960.585 267.267 964.318 262.333 966.452 256.2H986.052C983.118 266.733 977.252 275.333 968.452 282C959.652 288.533 948.718 291.8 935.652 291.8C925.252 291.8 915.918 289.467 907.652 284.8C899.518 280.133 893.118 273.533 888.452 265C883.785 256.333 881.452 246.333 881.452 235C881.452 223.667 883.718 213.733 888.252 205.2C892.785 196.667 899.118 190.133 907.252 185.6C915.518 180.933 924.985 178.6 935.652 178.6C946.052 178.6 955.252 180.867 963.252 185.4C971.252 189.933 977.385 196.2 981.652 204.2C986.052 212.067 988.252 221 988.252 231ZM969.452 227.2C969.452 220.267 967.918 214.333 964.852 209.4C961.785 204.333 957.585 200.533 952.252 198C947.052 195.333 941.252 194 934.852 194C925.652 194 917.785 196.933 911.252 202.8C904.852 208.667 901.185 216.8 900.252 227.2H969.452ZM1030.48 142V290H1012.28V142H1030.48ZM1087.49 150.4V236.8C1087.49 246.267 1089.96 253.533 1094.89 258.6C1099.83 263.533 1106.76 266 1115.69 266C1124.76 266 1131.76 263.533 1136.69 258.6C1141.63 253.533 1144.09 246.267 1144.09 236.8V150.4H1172.29V236.6C1172.29 248.467 1169.69 258.533 1164.49 266.8C1159.43 274.933 1152.56 281.067 1143.89 285.2C1135.36 289.333 1125.83 291.4 1115.29 291.4C1104.89 291.4 1095.43 289.333 1086.89 285.2C1078.49 281.067 1071.83 274.933 1066.89 266.8C1061.96 258.533 1059.49 248.467 1059.49 236.6V150.4H1087.49ZM1227.35 150.4V290H1199.35V150.4H1227.35Z" fill="black"/>
<defs>
<linearGradient id="paint0_linear_646_105" x1="244" y1="44" x2="244" y2="535.782" gradientUnits="userSpaceOnUse">
<stop stop-color="#0097FF"/>
<stop offset="1" stop-color="#0063A7"/>
</linearGradient>
<clipPath id="clip0_646_105">
<path d="M69 219C69 122.35 147.35 44 244 44V44C340.65 44 419 122.35 419 219V219C419 315.65 340.65 394 244 394V394C147.35 394 69 315.65 69 219V219Z" fill="white"/>
</clipPath>
</defs>
</svg>
